<svg width="60" height="60" viewBox="0 0 60 60" fill="none" xmlns="http://www.w3.org/2000/svg">
<circle id="Ellipse 4" cx="30" cy="30" r="30" fill="#FF3D00"/>
<svg width="60" height="45" viewBox="0 -6 24 21" fill="none" xmlns="http://www.w3.org/2000/svg">
<g id="Prio alta" clip-path="url(#clip0_126040_3349)">
<g id="Capa 2">
<g id="Capa 1">
<path id="Vector" d="M22.4143 17.4424C22.1469 17.4428 21.8864 17.3565 21.6712 17.1959L12.2677 10.176L2.86422 17.1959C2.7322 17.2947 2.58226 17.3661 2.42295 17.4062C2.26364 17.4463 2.09809 17.4543 1.93574 17.4297C1.77339 17.405 1.61743 17.3483 1.47676 17.2626C1.33609 17.177 1.21347 17.0642 1.11589 16.9306C1.01831 16.797 0.947694 16.6452 0.908064 16.484C0.868435 16.3228 0.860572 16.1553 0.884924 15.991C0.934106 15.6592 1.11152 15.3608 1.37814 15.1614L11.5247 7.57909C11.7397 7.418 12.0002 7.33105 12.2677 7.33105C12.5353 7.33105 12.7957 7.418 13.0108 7.57909L23.1573 15.1614C23.3692 15.3194 23.5263 15.5411 23.6062 15.7948C23.6862 16.0485 23.6848 16.3213 23.6024 16.5743C23.5201 16.8272 23.3608 17.0473 23.1474 17.2032C22.934 17.3591 22.6774 17.4428 22.4143 17.4424Z" fill="white"/>
<path id="Vector_2" d="M22.4143 10.8076C22.1469 10.8081 21.8865 10.7217 21.6712 10.5612L12.2677 3.54125L2.86422 10.5612C2.5976 10.7606 2.26362 10.8447 1.93575 10.7949C1.60787 10.7451 1.31296 10.5656 1.1159 10.2958C0.918829 10.026 0.835748 9.68802 0.884929 9.35623C0.934111 9.02444 1.11153 8.72601 1.37814 8.5266L11.5247 0.944323C11.7397 0.783236 12.0002 0.696289 12.2677 0.696289C12.5353 0.696289 12.7957 0.783236 13.0108 0.944323L23.1573 8.5266C23.3692 8.6846 23.5263 8.90629 23.6062 9.16003C23.6862 9.41377 23.6848 9.68658 23.6025 9.93951C23.5201 10.1924 23.3608 10.4126 23.1474 10.5685C22.934 10.7244 22.6774 10.8081 22.4143 10.8076Z" fill="white"/>
</g>
</g>
</g>
<defs>
<clipPath id="clip0_126040_3349">
<rect width="22.7907" height="16.7442" fill="white" transform="translate(0.87207 0.697754)"/>
</clipPath>
</defs>
</svg>
</svg>
